<?xml version="1.0" encoding="iso-8859-1"?>
<!-- Generator: Adobe Illustrator 19.0.0, SVG Export Plug-In . SVG Version: 6.00 Build 0)  -->
<svg version="1.1" id="Capa_1" xmlns="http://www.w3.org/2000/svg" xmlns:xlink="http://www.w3.org/1999/xlink" x="0px" y="0px"
	 width="45.822px" viewBox="0 0 455.111 455.111" style="enable-background:new 0 0 455.111 455.111;" xml:space="preserve">
<!-- <polygon points="15.644,435.2 140.8,345.6 140.8,398.222 184.889,361.244 193.422,455.111 227.556,362.667
	251.733,411.022 261.689,345.6 331.378,389.689 312.889,304.356 455.111,339.911 347.022,247.467 409.6,223.289 348.444,209.067
	381.156,167.822 335.644,170.667 378.311,106.667 317.156,143.644 362.667,0 246.044,115.2 244.622,48.356 206.222,108.089
	120.889,9.956 146.489,130.844 25.6,41.244 82.489,177.778 18.489,211.911 65.422,244.622 0,300.089 109.511,291.556 "/> -->
<polygon points="73.956,379.733 163.556,314.311 163.556,352.711 196.267,324.267 203.378,393.956
	227.556,325.689 246.044,361.244 253.156,314.311 302.933,345.6 290.133,283.022 393.956,310.044 314.311,241.778 359.822,224.711
	315.733,213.333 339.911,184.889 305.778,186.311 337.067,139.378 292.978,166.4 325.689,61.156 241.778,146.489 240.356,96.711
	211.911,140.8 150.756,69.689 167.822,157.867 79.644,91.022 122.311,192 75.378,216.178 109.511,240.356 61.156,280.178
	140.8,274.489 "/>
<g>
</g>
<g>
</g>
<g>
</g>
<g>
</g>
<g>
</g>
<g>
</g>
<g>
</g>
<g>
</g>
<g>
</g>
<g>
</g>
<g>
</g>
<g>
</g>
<g>
</g>
<g>
</g>
<g>
</g>
</svg>
