<svg id="svg" xmlns="http://www.w3.org/2000/svg" xmlns:xlink="http://www.w3.org/1999/xlink" width="400" height="133.26075122482308" viewBox="0, 0, 400,133.26075122482308"><g id="svgg"><path id="path0" d="M231.544 10.777 C 229.524 12.513,227.819 13.933,227.756 13.934 C 227.692 13.935,225.537 12.712,222.965 11.217 C 220.394 9.721,218.120 8.496,217.911 8.495 C 217.636 8.493,217.013 9.529,215.654 12.248 C 214.622 14.314,213.756 16.029,213.728 16.060 C 213.701 16.091,211.189 15.377,208.146 14.474 C 205.103 13.571,202.182 12.771,201.655 12.697 L 200.698 12.561 200.856 16.640 L 201.014 20.719 199.201 20.564 C 198.203 20.479,194.986 20.190,192.052 19.922 C 189.118 19.653,186.636 19.508,186.536 19.599 C 186.308 19.807,186.643 20.463,188.955 24.338 C 189.975 26.047,190.770 27.478,190.723 27.518 C 190.676 27.558,187.505 27.900,183.676 28.279 C 179.848 28.658,176.623 29.060,176.511 29.173 C 176.193 29.490,176.618 29.884,180.675 33.033 C 182.741 34.637,184.431 36.019,184.431 36.105 C 184.431 36.191,181.663 37.123,178.280 38.176 C 172.159 40.082,171.641 40.283,171.875 40.661 C 171.943 40.771,174.640 41.923,177.869 43.223 L 183.740 45.586 179.525 48.137 C 174.524 51.164,173.979 51.538,173.979 51.947 C 173.979 52.119,174.046 52.259,174.128 52.259 C 174.479 52.259,186.981 54.468,187.423 54.608 C 187.873 54.751,187.665 55.055,184.764 58.499 C 182.314 61.409,181.696 62.265,181.970 62.371 C 182.165 62.445,185.581 62.439,189.562 62.357 L 196.800 62.207 195.839 66.096 C 195.067 69.221,194.932 70.039,195.153 70.256 C 195.372 70.473,196.761 70.243,202.047 69.120 C 205.688 68.345,208.684 67.738,208.707 67.770 C 208.729 67.802,209.228 69.543,209.817 71.639 C 211.055 76.047,210.973 75.968,213.246 74.937 C 214.028 74.582,214.630 74.405,214.583 74.544 C 214.302 75.369,212.520 82.286,212.520 82.550 C 212.520 82.740,215.166 84.411,219.025 86.658 L 225.530 90.445 224.781 93.290 C 224.370 94.855,222.381 102.357,220.362 109.962 C 215.155 129.576,215.482 128.253,215.763 128.534 C 216.158 128.928,216.179 128.893,225.260 113.119 C 240.080 87.377,242.191 83.641,242.075 83.351 C 242.014 83.197,239.503 81.656,236.496 79.927 C 233.489 78.198,231.029 76.714,231.029 76.629 C 231.029 76.429,235.445 72.212,236.212 71.680 L 236.799 71.273 241.590 74.066 C 244.224 75.603,246.491 76.861,246.627 76.862 C 246.763 76.863,247.713 75.272,248.738 73.326 C 249.763 71.380,250.681 69.661,250.777 69.506 C 250.914 69.287,252.281 69.614,256.929 70.976 C 262.930 72.734,263.570 72.881,263.777 72.545 C 263.839 72.445,263.797 70.664,263.684 68.587 C 263.571 66.509,263.523 64.766,263.577 64.712 C 263.631 64.657,266.866 64.885,270.766 65.217 C 274.666 65.548,277.912 65.765,277.979 65.697 C 278.199 65.477,277.876 64.828,275.786 61.296 L 273.724 57.812 274.645 57.674 C 275.152 57.598,278.330 57.262,281.709 56.927 C 285.088 56.592,287.971 56.245,288.115 56.156 C 288.518 55.907,288.200 55.616,283.923 52.330 C 281.777 50.681,280.022 49.273,280.022 49.201 C 280.022 49.128,282.820 48.201,286.239 47.140 C 289.659 46.080,292.515 45.117,292.587 45.001 C 292.807 44.644,292.186 44.340,286.500 42.021 C 283.476 40.788,280.972 39.756,280.936 39.729 C 280.877 39.685,288.727 34.826,290.286 33.941 C 291.351 33.337,290.630 33.116,283.593 31.887 C 276.388 30.629,276.533 30.668,277.008 30.105 C 277.186 29.894,278.640 28.163,280.239 26.257 L 283.147 22.791 275.487 22.938 C 269.406 23.054,267.829 23.027,267.833 22.810 C 267.836 22.660,268.268 20.840,268.792 18.766 C 269.942 14.216,270.316 14.518,264.950 15.657 C 262.641 16.147,259.650 16.782,258.304 17.069 L 255.856 17.590 255.439 16.144 C 255.210 15.349,254.708 13.602,254.324 12.262 C 253.919 10.849,253.493 9.775,253.308 9.705 C 253.134 9.638,250.634 10.660,247.754 11.977 C 244.874 13.294,242.407 14.364,242.271 14.355 C 242.136 14.347,241.241 13.450,240.283 12.362 C 237.073 8.719,235.990 7.621,235.602 7.621 C 235.390 7.621,233.564 9.041,231.544 10.777 " stroke="none" fill="#000000" fill-rule="evenodd"></path></g></svg>