<?xml version="1.0" encoding="iso-8859-1"?>
<!-- Generator: Adobe Illustrator 16.0.0, SVG Export Plug-In . SVG Version: 6.00 Build 0)  -->
<!DOCTYPE svg PUBLIC "-//W3C//DTD SVG 1.1//EN" "http://www.w3.org/Graphics/SVG/1.1/DTD/svg11.dtd">
<svg version="1.1" id="Capa_1" xmlns="http://www.w3.org/2000/svg" xmlns:xlink="http://www.w3.org/1999/xlink" x="0px" y="0px"
	 width="45.822px" height="45.822px" viewBox="0 0 45.822 45.822" style="enable-background:new 0 0 45.822 45.822;"
	 xml:space="preserve">
<g>
	<g>
		<path d="M44.542,19.346c-1.772-1.432-2.789-3.556-2.789-5.827c0-0.774,0.121-1.543,0.359-2.288c0.168-0.525,0.033-1.1-0.349-1.498
			c-0.383-0.398-0.955-0.552-1.482-0.405c-0.673,0.187-1.349,0.282-2.011,0.282c-3.773,0-6.969-2.824-7.43-6.568
			c-0.075-0.613-0.519-1.117-1.116-1.271c-0.602-0.154-1.229,0.077-1.59,0.578c-1.409,1.96-3.683,3.13-6.082,3.13
			c-3.014,0-5.723-1.793-6.899-4.567c-0.262-0.618-0.909-0.981-1.567-0.902c-0.666,0.083-1.195,0.599-1.296,1.262
			c-0.563,3.683-3.675,6.356-7.397,6.356c-0.729,0-1.458-0.108-2.167-0.321C2.033,7.097,1.28,7.42,0.955,8.073
			C0.627,8.725,0.817,9.517,1.403,9.951c1.94,1.433,3.053,3.628,3.053,6.023c0,2.391-1.164,4.66-3.113,6.07
			c-0.499,0.361-0.728,0.991-0.574,1.587c0.153,0.597,0.655,1.04,1.267,1.115c3.41,0.428,5.447,4.636,5.229,8.59
			c-0.028,0.521-0.423,3.492-0.75,6.188C5.95,44.18,5.95,44.18,5.946,44.262c-0.025,0.625,0.341,1.201,0.918,1.443
			c0.188,0.078,0.386,0.117,0.581,0.117c0.405,0,0.804-0.166,1.093-0.473c0.599-0.637,1.486-1.951,3.005-4.221
			c1.793-2.678,5.108-7.812,6.767-8.762c2.105-1.207,3.87,0.112,5.181,3.097c0.248,0.567,0.805,0.928,1.44,0.896
			c0.619-0.027,1.157-0.435,1.354-1.022c1.022-3.062,3.876-5.117,7.099-5.117c1.503,0,2.951,0.442,4.188,1.278
			c0.496,0.337,1.147,0.343,1.652,0.018c0.505-0.326,0.768-0.922,0.665-1.514c-0.079-0.463-0.118-0.883-0.118-1.282
			c0-2.946,1.743-5.632,4.44-6.839c0.477-0.213,0.808-0.658,0.875-1.176C45.155,20.188,44.949,19.674,44.542,19.346z M36.812,27.794
			c-4.353-1.505-9.298,0.001-12.022,3.905c-1.016-1.328-3.686-3.646-7.154-2.107c-1.973,0.875-4.084,3.182-7.981,8.968
			c0.328-3.575,0.566-4.608,0.611-5.143c0.357-4.198-1.644-8.867-5.194-10.798c2.772-3.383,3.211-8.166,0.878-12.042
			c3.595-0.354,6.669-2.498,8.265-5.611c1.956,2.2,4.786,3.515,7.841,3.515c2.397,0,4.704-0.832,6.545-2.304
			c1.662,3.962,5.688,6.659,10.194,6.421c-0.027,0.306-0.041,0.614-0.041,0.922c0,2.47,0.856,4.814,2.401,6.677
			C38.688,21.967,37.085,24.74,36.812,27.794z"/>
		<path d="M10.026,12.329c-0.282-0.514-1.071-0.145-0.853,0.402c0,0,0.495,1.544,0.463,2.82c-0.058,3.88-1.204,4.981-1.583,6.071
			c-0.185,0.522,0.09,1.095,0.612,1.279C10.798,23.65,11.853,15.653,10.026,12.329z"/>
		<path d="M15.122,26.324c-0.474,0.188-0.665,0.726-0.452,1.162c0.205,0.422,0.713,0.598,1.136,0.393l0.035-0.018
			c3.992-1.929,6.251-1.24,7.721,0.066c0.189,0.168,0.479,0.167,0.667-0.009C25.003,27.191,21.693,23.73,15.122,26.324z"/>
		<path d="M33.566,24.896c-3.065-1.263-5.889,0.607-6.007,0.688c-0.545,0.369,0.009,1.199,0.562,0.828
			c0.023-0.017,2.49-1.65,5.064-0.59C33.802,26.07,34.174,25.146,33.566,24.896z"/>
	</g>
</g>
<g>
</g>
<g>
</g>
<g>
</g>
<g>
</g>
<g>
</g>
<g>
</g>
<g>
</g>
<g>
</g>
<g>
</g>
<g>
</g>
<g>
</g>
<g>
</g>
<g>
</g>
<g>
</g>
<g>
</g>
</svg>
