<?xml version="1.0" encoding="iso-8859-1"?>
<!-- Generator: Adobe Illustrator 16.0.0, SVG Export Plug-In . SVG Version: 6.00 Build 0)  -->
<!DOCTYPE svg PUBLIC "-//W3C//DTD SVG 1.1//EN" "http://www.w3.org/Graphics/SVG/1.1/DTD/svg11.dtd">
<svg version="1.1" id="Capa_1" xmlns="http://www.w3.org/2000/svg" xmlns:xlink="http://www.w3.org/1999/xlink" x="0px" y="0px"
	 width="466.241px" height="466.242px" viewBox="0 0 466.241 466.242" style="enable-background:new 0 0 466.241 466.242;"
	 xml:space="preserve">
<g>
	<path d="M363.932,411.446c-14.729,0-26.711,11.981-26.711,26.716c0,14.736,11.981,26.705,26.711,26.705
		c14.724,0,26.711-11.98,26.711-26.705C390.643,423.439,378.655,411.446,363.932,411.446z M363.932,452.761
		c-8.057,0-14.605-6.549-14.605-14.6c0-8.062,6.562-14.611,14.605-14.611c8.051,0,14.605,6.55,14.605,14.611
		C378.537,446.212,371.982,452.761,363.932,452.761z M466.241,303.591c0-33.312-27.095-60.407-60.408-60.407
		c-1.737,0-3.464,0.118-5.166,0.26c26.87-15.519,45.052-44.499,45.052-77.703c0-49.476-40.252-89.725-89.726-89.725
		c-4.102,0-8.198,0.284-12.234,0.831c-11.432-44.071-51.578-75.472-97.617-75.472c-30.529,0-58.726,13.456-78.004,37.084
		c-11.514-3.188-23.43-4.812-35.482-4.812C59.51,33.647,0,93.157,0,166.308c0,73.14,59.51,132.649,132.655,132.649
		c21.646,0,43.048-5.391,62.24-15.628c17.171,21.882,43.477,34.791,71.42,34.791c39.425,0,74.204-25.547,86.262-62.725
		c1.135,0.047,2.27,0.07,3.416,0.07c5.249,0,10.362-0.544,15.368-1.4c-15.651,10.929-25.931,29.033-25.931,49.537
		c0,32.889,26.439,59.67,59.185,60.338c-14.274,4.113-24.766,17.271-24.766,32.863c0,18.867,15.351,34.212,34.217,34.212
		c18.867,0,34.218-15.345,34.218-34.212c0-17.602-13.358-32.131-30.464-34.01C445.399,357.208,466.241,332.785,466.241,303.591z
		 M348.712,242.989l-5.107-0.473l-1.312,4.953c-9.114,34.466-40.358,58.54-75.977,58.54c-25.812,0-50.017-12.726-64.738-34.022
		l-3.195-4.622l-4.85,2.849c-18.533,10.876-39.584,16.634-60.878,16.634c-66.47,0-120.55-54.087-120.55-120.545
		c0-66.469,54.08-120.556,120.55-120.556c12.238,0,24.326,1.835,35.911,5.447l4.072,1.265l2.562-3.414
		c16.981-22.6,42.838-35.571,70.935-35.571c42.25,0,78.873,30.05,87.054,71.476l1.183,5.967l5.97-1.215
		c5.106-1.055,10.373-1.587,15.64-1.587c42.806,0,77.62,34.826,77.62,77.62c0,42.803-34.814,77.614-77.62,77.614
		C353.534,243.349,351.111,243.213,348.712,242.989z M436.179,396.787c0,12.194-9.918,22.101-22.112,22.101
		c-12.193,0-22.112-9.918-22.112-22.101c0-12.205,9.919-22.112,22.112-22.112C426.261,374.674,436.179,384.582,436.179,396.787z
		 M405.833,351.876c-26.628,0-48.291-21.656-48.291-48.297c0-26.634,21.669-48.297,48.291-48.297
		c26.634,0,48.303,21.669,48.303,48.297C454.136,330.214,432.467,351.876,405.833,351.876z"/>
</g>
<g>
</g>
<g>
</g>
<g>
</g>
<g>
</g>
<g>
</g>
<g>
</g>
<g>
</g>
<g>
</g>
<g>
</g>
<g>
</g>
<g>
</g>
<g>
</g>
<g>
</g>
<g>
</g>
<g>
</g>
</svg>
