<svg id="svg" xmlns="http://www.w3.org/2000/svg" xmlns:xlink="http://www.w3.org/1999/xlink" width="400" height="133.26075122482308" viewBox="0, 0, 400,133.26075122482308"><g id="svgg"><path id="path0" d="M182.471 16.005 C 178.537 16.800,175.333 18.521,172.185 21.528 L 170.717 22.931 168.544 22.549 C 147.015 18.767,130.200 40.384,139.081 60.425 C 144.930 73.624,160.971 79.864,174.317 74.132 L 176.170 73.336 177.872 74.962 C 187.239 83.910,202.677 80.822,207.842 68.966 L 208.480 67.501 209.548 67.501 L 210.616 67.501 209.736 68.456 C 203.358 75.375,206.829 87.048,215.865 89.070 L 217.039 89.333 215.944 90.230 C 210.755 94.480,213.829 102.865,220.577 102.865 C 228.048 102.865,230.587 92.890,224.001 89.417 L 222.960 88.869 224.698 87.965 C 235.299 82.449,232.741 66.608,220.927 64.613 L 219.287 64.336 220.624 63.253 C 233.691 52.676,226.394 31.526,209.401 30.725 L 206.609 30.593 205.890 28.681 C 202.456 19.542,192.264 14.025,182.471 16.005 M208.055 98.920 C 202.584 101.536,204.402 109.744,210.452 109.744 C 215.363 109.744,217.941 104.000,214.691 100.298 C 213.121 98.509,210.187 97.900,208.055 98.920 " stroke="none" fill="#000000" fill-rule="evenodd"></path></g></svg>